<svg width="14" height="16" viewBox="0 0 14 16" fill="none" xmlns="http://www.w3.org/2000/svg">
<path d="M13.4688 7.875C13.4479 8.39583 13.3698 8.91146 13.2344 9.42188C13.1042 9.92708 12.9036 10.388 12.6328 10.8047C12.3672 11.2161 12.026 11.5469 11.6094 11.7969C11.1927 12.0417 10.6901 12.1641 10.1016 12.1641C9.75781 12.1641 9.45052 12.1042 9.17969 11.9844C8.90885 11.8646 8.68229 11.6927 8.5 11.4688C8.31771 11.2396 8.1849 10.9661 8.10156 10.6484C8.01823 10.3255 7.98958 9.96615 8.01562 9.57031L8.41406 5.10938H9.88281L9.49219 9.57031C9.46094 9.86719 9.46615 10.1094 9.50781 10.2969C9.54948 10.4844 9.61458 10.6302 9.70312 10.7344C9.79167 10.8333 9.89323 10.9036 10.0078 10.9453C10.1276 10.987 10.2448 11.0078 10.3594 11.0078C10.625 11.0078 10.8646 10.9297 11.0781 10.7734C11.2969 10.612 11.4844 10.3906 11.6406 10.1094C11.7969 9.82812 11.9193 9.5026 12.0078 9.13281C12.0964 8.75781 12.1484 8.35417 12.1641 7.92188C12.1953 7.20833 12.1589 6.54948 12.0547 5.94531C11.9557 5.34115 11.7839 4.80208 11.5391 4.32812C11.2943 3.85417 10.9766 3.45312 10.5859 3.125C10.1953 2.79167 9.73177 2.53646 9.19531 2.35938C8.65885 2.18229 8.04167 2.09375 7.34375 2.09375C6.70312 2.09375 6.11198 2.19531 5.57031 2.39844C5.02865 2.59635 4.54167 2.88021 4.10938 3.25C3.68229 3.61979 3.3151 4.0625 3.00781 4.57812C2.70052 5.09375 2.45833 5.66927 2.28125 6.30469C2.10938 6.9401 2.00781 7.61979 1.97656 8.34375C1.9401 9.10938 1.97917 9.80729 2.09375 10.4375C2.21354 11.0625 2.40365 11.6146 2.66406 12.0938C2.92969 12.5729 3.26302 12.9766 3.66406 13.3047C4.0651 13.6328 4.53125 13.8802 5.0625 14.0469C5.59375 14.2135 6.18229 14.2969 6.82812 14.2969C7.28125 14.2969 7.74219 14.2448 8.21094 14.1406C8.6849 14.0365 9.08333 13.9036 9.40625 13.7422L9.70312 14.8438C9.33854 15.0781 8.88281 15.2526 8.33594 15.3672C7.79427 15.4818 7.28125 15.5391 6.79688 15.5391C5.97917 15.5391 5.23177 15.4375 4.55469 15.2344C3.88281 15.0312 3.28906 14.7292 2.77344 14.3281C2.25781 13.9271 1.82812 13.4375 1.48438 12.8594C1.14062 12.2812 0.888021 11.6146 0.726562 10.8594C0.565104 10.1042 0.502604 9.26562 0.539062 8.34375C0.575521 7.48958 0.705729 6.6875 0.929688 5.9375C1.15365 5.18229 1.46354 4.4974 1.85938 3.88281C2.25521 3.26823 2.72656 2.73958 3.27344 2.29688C3.82552 1.84896 4.44531 1.50521 5.13281 1.26562C5.82031 1.02604 6.56771 0.90625 7.375 0.90625C8.1875 0.90625 8.92448 1.01302 9.58594 1.22656C10.2474 1.4401 10.8281 1.7474 11.3281 2.14844C11.8281 2.54948 12.2422 3.03646 12.5703 3.60938C12.8984 4.18229 13.138 4.82812 13.2891 5.54688C13.4401 6.26042 13.5 7.03646 13.4688 7.875ZM5.55469 8.66406C5.52344 9.00781 5.52344 9.31771 5.55469 9.59375C5.58594 9.86458 5.64583 10.0911 5.73438 10.2734C5.82812 10.4557 5.95052 10.5964 6.10156 10.6953C6.2526 10.7891 6.42969 10.8359 6.63281 10.8359C6.7526 10.8359 6.88281 10.8073 7.02344 10.75C7.16406 10.6875 7.30208 10.5885 7.4375 10.4531C7.57812 10.3125 7.71094 10.125 7.83594 9.89062C7.96615 9.65104 8.07552 9.35156 8.16406 8.99219L8.78906 9.72656C8.66927 10.1276 8.51823 10.4792 8.33594 10.7812C8.15885 11.0833 7.95573 11.3359 7.72656 11.5391C7.4974 11.7422 7.25 11.8958 6.98438 12C6.71875 12.099 6.4401 12.1484 6.14844 12.1484C5.76823 12.1484 5.42969 12.0651 5.13281 11.8984C4.83594 11.7318 4.59115 11.4974 4.39844 11.1953C4.20573 10.888 4.06771 10.5208 3.98438 10.0938C3.90104 9.66667 3.88542 9.1901 3.9375 8.66406C3.99479 8.1276 4.09635 7.63281 4.24219 7.17969C4.39323 6.72135 4.58073 6.3125 4.80469 5.95312C5.02865 5.59375 5.28125 5.28906 5.5625 5.03906C5.84896 4.78385 6.15625 4.59115 6.48438 4.46094C6.81771 4.33073 7.16406 4.26562 7.52344 4.26562C8.11719 4.26562 8.58333 4.35156 8.92188 4.52344C9.26042 4.6901 9.58073 4.88542 9.88281 5.10938L9.11719 6.11719C8.96615 5.97656 8.76823 5.84375 8.52344 5.71875C8.28385 5.58854 7.9974 5.52344 7.66406 5.52344C7.36198 5.52344 7.09115 5.59115 6.85156 5.72656C6.61719 5.86198 6.41146 6.0625 6.23438 6.32812C6.05729 6.59375 5.91146 6.92188 5.79688 7.3125C5.68229 7.69792 5.60156 8.14844 5.55469 8.66406Z" fill="#4338CA"/>
</svg>
