<svg width="16" height="16" viewBox="0 0 16 16" fill="none" xmlns="http://www.w3.org/2000/svg">
<path opacity="0.4" d="M8.00073 11.5666C8.28893 11.5666 8.56533 11.4522 8.76912 11.2484C8.97291 11.0446 9.0874 10.7682 9.0874 10.48C9.0874 10.1918 8.97291 9.91538 8.76912 9.71159C8.56533 9.5078 8.28893 9.39331 8.00073 9.39331C7.71253 9.39331 7.43613 9.5078 7.23234 9.71159C7.02855 9.91538 6.91406 10.1918 6.91406 10.48C6.91406 10.7682 7.02855 11.0446 7.23234 11.2484C7.43613 11.4522 7.71253 11.5666 8.00073 11.5666Z" fill="#4338CA"/>
<path d="M11.0997 6.29395H4.89967C2.16634 6.29395 1.33301 7.12728 1.33301 9.86061V11.1006C1.33301 13.8339 2.16634 14.6673 4.89967 14.6673H11.0997C13.833 14.6673 14.6663 13.8339 14.6663 11.1006V9.86061C14.6663 7.12728 13.833 6.29395 11.0997 6.29395ZM7.99967 12.4939C6.88634 12.4939 5.98634 11.5873 5.98634 10.4806C5.98634 9.37395 6.88634 8.46728 7.99967 8.46728C9.11301 8.46728 10.013 9.37395 10.013 10.4806C10.013 11.5873 9.11301 12.4939 7.99967 12.4939Z" fill="#4338CA"/>
<path opacity="0.4" d="M4.74583 6.30004V5.52004C4.74583 3.56671 5.29917 2.26671 7.99917 2.26671C10.6992 2.26671 11.2525 3.56671 11.2525 5.52004V6.30004C11.5925 6.30671 11.8992 6.32004 12.1858 6.36004V5.52004C12.1858 3.72004 11.7525 1.33337 7.99917 1.33337C4.24583 1.33337 3.8125 3.72004 3.8125 5.52004V6.35337C4.0925 6.32004 4.40583 6.30004 4.74583 6.30004Z" fill="#4338CA"/>
</svg>
