<svg width="16" height="16" viewBox="0 0 16 16" fill="none" xmlns="http://www.w3.org/2000/svg">
<path opacity="0.4" d="M7.99967 1.33337C6.25301 1.33337 4.83301 2.75337 4.83301 4.50004C4.83301 6.21337 6.17301 7.60004 7.91967 7.66004C7.97301 7.65337 8.02634 7.65337 8.06634 7.66004H8.11301C8.93258 7.63269 9.70939 7.28769 10.2792 6.69798C10.849 6.10826 11.1671 5.32007 11.1663 4.50004C11.1663 2.75337 9.74634 1.33337 7.99967 1.33337Z" fill="#4338CA"/>
<path d="M11.3866 9.43269C9.52664 8.19269 6.49331 8.19269 4.61997 9.43269C3.77331 9.99935 3.30664 10.766 3.30664 11.586C3.30664 12.406 3.77331 13.166 4.61331 13.726C5.54664 14.3527 6.77331 14.666 7.99997 14.666C9.22664 14.666 10.4533 14.3527 11.3866 13.726C12.2266 13.1594 12.6933 12.3994 12.6933 11.5727C12.6866 10.7527 12.2266 9.99269 11.3866 9.43269V9.43269Z" fill="#4338CA"/>
</svg>
